<svg xmlns="http://www.w3.org/2000/svg" aria-hidden="true" overflow="hidden" style="position:absolute;width:0;height:0">
  <defs>
    <symbol id="icon-arrow" viewBox="0 0 38 32">
      <path d="M.624 17.218a2.134 2.134 0 0 1 0-3.017L14.2.625a2.134 2.134 0 0 1 3.017 3.017L5.149 15.71l12.068 12.068a2.134 2.134 0 0 1-3.017 3.017L.624 17.219zm37.268.625H2.133v-4.267h35.759v4.267z"/>
    </symbol>
    <symbol id="icon-crown" viewBox="0 0 38 32">
      <path d="M37.347 7.45c-.337-.306-.745-.502-1.178-.566s-.873.004-1.272.2l-8.417 4.107c-.037.022-.078.036-.12.041s-.085 0-.125-.014-.078-.036-.11-.066a.34.34 0 0 1-.078-.108L21.13 1.327c-.199-.402-.493-.737-.851-.97S19.513 0 19.097 0s-.824.123-1.182.357a2.46 2.46 0 0 0-.851.97l-4.917 9.717c-.019.041-.046.078-.078.108s-.07.052-.11.066c-.04.014-.083.018-.125.014s-.083-.019-.12-.041L3.297 7.084c-.398-.198-.838-.27-1.271-.207s-.841.259-1.178.564C.511 7.747.259 8.15.12 8.605s-.159.944-.057 1.412l4.25 19.855c.072.336.205.652.391.929s.422.51.692.685c.356.24.766.367 1.183.367.214-.002.426-.033.633-.092a40.736 40.736 0 0 1 23.75-.018c.303.096.621.124.934.081s.615-.155.888-.33c.273-.175.51-.409.698-.687s.323-.597.396-.934l4.233-19.855c.106-.464.09-.951-.046-1.405s-.386-.857-.721-1.161zM36.18 9.504l-4.25 19.855a.424.424 0 0 1-.15.238.388.388 0 0 1-.267.037 42.554 42.554 0 0 0-24.833 0 .31.31 0 0 1-.263-.038c-.039-.026-.073-.06-.099-.101s-.045-.087-.055-.136L2.013 9.504a.417.417 0 0 1 .071-.314c.032-.044.072-.079.117-.104s.095-.039.146-.04l.133.037 8.433 4.125c.532.263 1.134.297 1.687.093s1.016-.63 1.296-1.193l4.917-9.717a.337.337 0 0 1 .117-.141.297.297 0 0 1 .334 0c.05.034.09.083.117.141l4.917 9.717c.28.563.743.989 1.296 1.193s1.156.171 1.688-.093l8.433-4.125c.057-.028.12-.037.182-.028s.12.038.168.083c.049.043.086.1.106.165s.024.135.011.202zM25.43 23.437c-.028.271-.146.521-.33.703s-.422.284-.67.287h-.1a47.572 47.572 0 0 0-10.467 0c-.263.031-.526-.054-.732-.236s-.338-.447-.368-.736c-.023-.291.058-.581.226-.807s.41-.371.674-.403a46.798 46.798 0 0 1 10.867 0c.261.032.5.174.668.397s.251.507.232.795z"/>
    </symbol>
    <symbol id="icon-plant" viewBox="0 0 40 32">
      <path d="M12.337 10.242H-.173a.68.68 0 0 0-.695.667v4.001a.68.68 0 0 0 .695.667h.695v15.337a.68.68 0 0 0 .695.667h9.73a.68.68 0 0 0 .695-.667V15.577h.695a.68.68 0 0 0 .695-.667v-4.001a.68.68 0 0 0-.695-.667zm-7.645 12.67v-1.334h4.17v-1.334h-4.17V18.91h5.56v8.669h-5.56v-3.334h1.39v-1.334h-1.39zm5.56-5.334H3.997a.68.68 0 0 0-.695.667v10.002a.68.68 0 0 0 .695.667h6.255v1.334h-8.34v-14.67h8.34v2zm1.39-3.335H.522v-2.667h11.12v2.667zm9.904-3.876V5.492a.69.69 0 0 0-.695-.687h-.695V1.372h1.39V-.001h-7.645v1.373h4.865v3.433h-.695a.69.69 0 0 0-.695.687v4.875c-1.584.319-2.78 1.705-2.78 3.363v17.163c0 .38.311.687.695.687h8.34a.69.69 0 0 0 .695-.687V13.73c0-1.657-1.196-3.044-2.78-3.363zm-2.78-4.188h1.39v4.119h-1.39V6.179zm-.695 5.492h2.78c1.15 0 2.085.924 2.085 2.06v.687h-6.95v-.687c0-1.136.936-2.06 2.085-2.06zm4.865 15.791h-6.95v-1.373h2.78v-1.373h-2.78v-8.925h6.95v11.671zm-6.95 2.746v-1.373h6.95v1.373h-6.95zM39.313 9.389H27.584a.662.662 0 0 0-.652.672v20.847c0 .372.291.672.652.672h11.729c.36 0 .652-.301.652-.672V10.061a.661.661 0 0 0-.652-.672zm-.652 20.847H28.236V10.734h10.425v19.502z"/>
      <path d="M9.557 23.045H7.819v.854h1.738v-.854zm12.163 1.708h-1.738v1.707h1.738v-1.707zm-2.172-1.707c1.677 0 3.041-1.34 3.041-2.987s-1.364-2.987-3.041-2.987c-1.677 0-3.041 1.34-3.041 2.987s1.364 2.987 3.041 2.987zm0-4.482c.838 0 1.52.67 1.52 1.494s-.682 1.494-1.52 1.494-1.52-.67-1.52-1.494.682-1.494 1.52-1.494zm12.271-2.347h3.258c1.258 0 2.281-.957 2.281-2.134s-1.023-2.134-2.281-2.134h-3.258c-1.258 0-2.28.957-2.28 2.134s1.023 2.134 2.28 2.134zm4.235-2.134c0 .504-.438.915-.977.915H34.1v-1.829h.977c.539 0 .977.41.977.915zm-4.235-.914h.977v1.829h-.977c-.539 0-.977-.41-.977-.915s.439-.915.977-.915zm0 9.876h3.258c1.258 0 2.281-1.149 2.281-2.561s-1.023-2.561-2.281-2.561h-3.258c-1.258 0-2.28 1.149-2.28 2.561s1.023 2.561 2.28 2.561zm4.235-2.56c0 .605-.438 1.097-.977 1.097H34.1v-2.195h.977c.539 0 .977.492.977 1.097zm-4.235-1.098h.977v2.195h-.977c-.539 0-.977-.492-.977-1.097s.439-1.097.977-1.097zm0 9.633h3.258c1.258 0 2.281-1.149 2.281-2.561s-1.023-2.561-2.281-2.561h-3.258c-1.258 0-2.28 1.149-2.28 2.561s1.023 2.561 2.28 2.561zm4.235-2.56c0 .605-.438 1.097-.977 1.097H34.1v-2.195h.977c.539 0 .977.492.977 1.097zm-4.235-1.098h.977v2.195h-.977c-.539 0-.977-.492-.977-1.097s.439-1.097.977-1.097z"/>
    </symbol>
    <symbol id="icon-atom" viewBox="0 0 29 32">
      <path d="M14.347 0c-1.145 0-2.215.522-3.127 1.376S9.528 3.42 8.877 4.861a18.01 18.01 0 0 0-.391.939 18.142 18.142 0 0 0-1.011-.131 14.909 14.909 0 0 0-1.15-.072c-1.12-.027-2.143.087-3.04.359-1.196.363-2.182 1.028-2.755 2.02s-.656 2.179-.372 3.396c.284 1.217.924 2.488 1.847 3.772.194.269.401.54.619.81-.214.264-.42.533-.618.809-.923 1.284-1.563 2.555-1.847 3.772s-.201 2.404.372 3.396 1.559 1.658 2.755 2.02 2.616.444 4.19.286c.33-.033.667-.077 1.01-.131.122.317.252.631.392.941.651 1.441 1.431 2.631 2.343 3.485s1.982 1.376 3.127 1.376c1.145 0 2.215-.522 3.127-1.376s1.692-2.044 2.343-3.485c.139-.31.27-.624.392-.941a17.9 17.9 0 0 0 1.009.131c1.574.157 2.994.076 4.19-.286s2.182-1.028 2.755-2.02.656-2.179.372-3.396-.924-2.488-1.847-3.772a17.818 17.818 0 0 0-.618-.809c.214-.264.42-.534.619-.809.923-1.284 1.563-2.555 1.847-3.772s.201-2.404-.372-3.396-1.559-1.658-2.755-2.02c-.897-.272-1.92-.385-3.039-.359-.373.009-.757.033-1.15.072-.33.033-.667.077-1.01.131-.122-.317-.252-.63-.391-.939-.651-1.441-1.431-2.631-2.343-3.485S15.495.001 14.35.001zm0 1.274c.764 0 1.513.336 2.256 1.032s1.452 1.749 2.053 3.08c.098.217.191.436.279.657-1.46.325-3.007.823-4.588 1.488A27.09 27.09 0 0 0 9.76 6.043c.09-.226.183-.446.279-.658.601-1.331 1.31-2.384 2.053-3.08s1.492-1.031 2.256-1.031zM5.921 6.869a13.553 13.553 0 0 1 1.428.068c.232.023.47.053.711.088a27.024 27.024 0 0 0-1.005 4.717 27.01 27.01 0 0 0-3.583 3.229 15.801 15.801 0 0 1-.431-.571c-.852-1.185-1.409-2.326-1.641-3.318s-.147-1.808.235-2.469c.382-.662 1.047-1.143 2.021-1.438.639-.194 1.405-.298 2.266-.306zm16.852 0c.861.008 1.626.112 2.266.306.974.295 1.639.776 2.021 1.438s.466 1.478.235 2.469c-.231.991-.789 2.132-1.641 3.318-.14.194-.283.384-.431.571a27.13 27.13 0 0 0-3.582-3.229 27.056 27.056 0 0 0-1.005-4.718 14.236 14.236 0 0 1 1.763-.154c.125-.003.25-.004.375-.003zm-3.404.385c.339 1.053.619 2.214.829 3.457a34.473 34.473 0 0 0-4.237-2.446 24.781 24.781 0 0 1 3.408-1.011zm-10.044 0a24.76 24.76 0 0 1 3.407 1.01 34.599 34.599 0 0 0-4.236 2.445c.209-1.242.49-2.404.829-3.456zm5.022 1.667c1.037.457 2.089.989 3.138 1.595s2.037 1.252 2.951 1.921c.122 1.127.188 2.304.188 3.516s-.066 2.388-.188 3.514a32.84 32.84 0 0 1-6.09 3.516c-1.037-.457-2.09-.989-3.139-1.595s-2.036-1.251-2.95-1.92c-.122-1.127-.188-2.304-.188-3.515s.066-2.39.188-3.517a32.822 32.822 0 0 1 6.088-3.515zm.086 1.917-3.648 2.251 3.648 2.251 3.648-2.251-3.648-2.251zm-7.552 2.669a35.027 35.027 0 0 0 0 4.892 24.69 24.69 0 0 1-2.579-2.446 24.69 24.69 0 0 1 2.579-2.446zm14.932 0a24.776 24.776 0 0 1 2.578 2.446 24.77 24.77 0 0 1-2.578 2.445 34.992 34.992 0 0 0 0-4.891zm-11.85.573v4.445l3.831 2.364v-4.445L9.963 14.08zm8.936.002-3.83 2.364v4.443l3.83-2.364v-4.443zM3.471 16.935a26.94 26.94 0 0 0 3.583 3.229c.214 1.702.556 3.29 1.005 4.716-.241.035-.478.065-.709.088-1.453.145-2.72.057-3.694-.238s-1.639-.776-2.021-1.438c-.382-.662-.466-1.478-.235-2.469s.789-2.132 1.641-3.318c.139-.193.283-.384.43-.571zm21.752 0c.15.191.295.381.43.57.852 1.185 1.409 2.326 1.641 3.317s.147 1.808-.234 2.469c-.382.662-1.047 1.143-2.021 1.438s-2.241.383-3.693.238a15.414 15.414 0 0 1-.709-.088 27.036 27.036 0 0 0 1.005-4.718 27.057 27.057 0 0 0 3.582-3.228zm-5.025 4.26a24.682 24.682 0 0 1-.829 3.457 24.781 24.781 0 0 1-3.408-1.011 35.272 35.272 0 0 0 4.236-2.446zm-11.702.001a35.248 35.248 0 0 0 4.235 2.446c-1.181.44-2.326.778-3.407 1.01a24.636 24.636 0 0 1-.828-3.456zm5.889.058.046.029.046-.029h-.093zm-.038 3.12a27.128 27.128 0 0 0 4.588 1.488c-.088.222-.181.442-.279.659-.601 1.33-1.31 2.384-2.053 3.08s-1.492 1.032-2.256 1.032c-.764 0-1.513-.336-2.256-1.032s-1.452-1.749-2.053-3.08a16.45 16.45 0 0 1-.279-.659 27.09 27.09 0 0 0 4.587-1.488z"/>
    </symbol>
    <symbol id="icon-in" viewBox="0 0 32 32">
      <path d="M15.68 8.32a7.364 7.364 0 0 0-6.8 4.543 7.36 7.36 0 1 0 6.798-4.545zm0 12.8a5.436 5.436 0 0 1-5.026-3.358 5.436 5.436 0 0 1 3.964-7.417 5.437 5.437 0 0 1 5.584 2.314c.598.895.917 1.946.917 3.022a5.455 5.455 0 0 1-5.44 5.44zM22.72 0H8.64A8.643 8.643 0 0 0 0 8.64v14.08a8.643 8.643 0 0 0 8.64 8.64h14.08a8.643 8.643 0 0 0 8.64-8.64V8.64A8.643 8.643 0 0 0 22.72 0zm6.72 22.72a6.723 6.723 0 0 1-6.72 6.72H8.64a6.721 6.721 0 0 1-6.72-6.72V8.64a6.721 6.721 0 0 1 6.72-6.72h14.08a6.723 6.723 0 0 1 6.72 6.72v14.08zM25.6 7.36a1.6 1.6 0 1 1-3.198 0 1.6 1.6 0 0 1 3.197 0z"/>
    </symbol>
    <symbol id="icon-burger" viewBox="0 0 46 32">
      <path d="M45.714 29.726A2.274 2.274 0 0 1 43.44 32H25.131a2.275 2.275 0 0 1-1.608-3.882 2.275 2.275 0 0 1 1.608-.666H43.44a2.273 2.273 0 0 1 2.274 2.274zm0-13.726a2.274 2.274 0 0 1-2.274 2.274H2.274a2.275 2.275 0 0 1-1.608-3.882 2.275 2.275 0 0 1 1.608-.666H43.44A2.274 2.274 0 0 1 45.714 16zM43.44 4.549A2.275 2.275 0 0 0 45.048.667 2.275 2.275 0 0 0 43.44.001H15.989a2.277 2.277 0 0 0-2.274 2.274 2.277 2.277 0 0 0 2.274 2.274H43.44z"/>
    </symbol>
    <symbol id="icon-fb" viewBox="0 0 19 32">
      <path d="M18.004.238A42.834 42.834 0 0 0 13.376 0C8.251 0 5.067 3.264 5.067 8.518v3.567H.762a.762.762 0 0 0-.762.762v5.867a.762.762 0 0 0 .762.762h4.305V31.24a.762.762 0 0 0 .762.762h6.062a.762.762 0 0 0 .762-.762V19.476h4.291a.763.763 0 0 0 .756-.663l.757-5.867a.774.774 0 0 0-.182-.602.758.758 0 0 0-.572-.26h-5.048V9.099c0-1.478.297-2.095 2.146-2.095h3.107a.762.762 0 0 0 .762-.762V.992a.763.763 0 0 0-.663-.756zm-.861 5.242-2.347.002c-3.287 0-3.668 2.066-3.668 3.619v3.749a.76.76 0 0 0 .761.762h4.946l-.562 4.343H11.89a.762.762 0 0 0-.762.762v11.761H6.59V18.717a.762.762 0 0 0-.762-.762H1.525v-4.343h4.303a.762.762 0 0 0 .762-.762V8.519c0-4.379 2.537-6.994 6.786-6.994 1.537 0 2.926.084 3.767.157v3.799z"/>
    </symbol>
    <symbol id="icon-phone"  viewBox="0 0 28 32">
<path d="M25.766 22.83l-0.179-0.223c-1.416-1.791-2.6-2.722-3.616-2.845-0.878-0.12-1.727 0.487-2.63 1.112l-0.965 0.603c-0.116 0.058-0.23 0.105-0.337 0.136-0.564 0.16-1.989 0.253-2.795-0.484-0.939-0.859-2.395-2.431-3.528-3.804-1.082-1.422-2.271-3.195-2.892-4.311-0.524-0.946-0.085-2.268 0.208-2.758 0.058-0.096 0.133-0.191 0.217-0.285l0.851-0.786c0.012-0.012 0.018-0.028 0.029-0.039 0.008-0.008 0.022-0.005 0.032-0.012 0.768-0.648 1.562-1.316 1.671-2.173 0.128-1.007-0.498-2.37-1.917-4.159l-0.173-0.223c-0.878-1.126-2.206-2.828-4.114-2.548-0.75 0.111-1.42 0.367-2.111 0.801-0.007 0.004-0.011 0.012-0.017 0.017s-0.012 0.004-0.018 0.008l-0.962 0.713c-0.010 0.006-0.015 0.018-0.025 0.026-0.007 0.007-0.018 0.008-0.026 0.015-0.111 0.094-0.223 0.19-0.333 0.289-0.976 0.87-3.088 3.395-1.647 8.067 0.93 3.017 2.849 6.538 5.562 10.201l-0.026 0.022 1.496 1.864 0.012-0.010c2.941 3.479 5.935 6.169 8.678 7.797 1.831 1.087 3.43 1.447 4.746 1.447 1.731 0 2.971-0.622 3.594-1.027l0.391-0.262c0.044-0.030 0.076-0.073 0.107-0.111l0.852-0.641c0.010-0.008 0.015-0.019 0.025-0.028 0.004-0.004 0.011-0.003 0.017-0.007 0.606-0.553 1.025-1.133 1.317-1.82 0.756-1.76-0.597-3.446-1.492-4.563zM26.247 26.96c-0.227 0.534-0.559 0.988-1.038 1.429l-1.268 0.954c-1.148 0.746-3.602 1.668-7.167-0.449-2.743-1.628-5.763-4.381-8.734-7.961l-0.804-1.016c-2.798-3.711-4.766-7.264-5.695-10.276-1.207-3.916 0.314-6.016 1.332-6.923 0.103-0.094 0.206-0.18 0.308-0.267l0.004-0.004 0.924-0.684c0.562-0.355 1.082-0.553 1.681-0.644 1.279-0.193 2.319 1.156 3.083 2.136l0.179 0.227c1.586 2 1.738 2.951 1.689 3.339-0.055 0.431-0.71 0.983-1.288 1.469l-0.081 0.069c-0.003 0.003-0.004 0.007-0.007 0.010-0.004 0.003-0.008 0.004-0.012 0.007l-0.879 0.813c-0.005 0.005-0.008 0.012-0.014 0.019s-0.017 0.010-0.022 0.017c-0.136 0.153-0.253 0.306-0.348 0.464-0.494 0.827-0.961 2.537-0.224 3.859 0.643 1.156 1.866 2.982 2.991 4.458 1.175 1.426 2.674 3.044 3.646 3.932 0.728 0.665 1.741 0.888 2.618 0.888 0.469 0 0.9-0.065 1.226-0.157 0.172-0.050 0.35-0.121 0.533-0.211 0.011-0.005 0.017-0.015 0.028-0.022 0.005-0.003 0.014-0.001 0.019-0.006l1.021-0.639c0.033-0.022 0.055-0.051 0.083-0.078l0.012 0.014c0.629-0.436 1.346-0.948 1.795-0.874 0.398 0.048 1.301 0.431 2.889 2.436l0.183 0.23c0.773 0.965 1.833 2.286 1.339 3.441z" ></path>
</symbol>
    <symbol id="icon-close" viewBox="0 0 32 32">
<path stroke-linejoin="miter" stroke-linecap="round" stroke-miterlimit="4" stroke-width="3.5556" d="M1.778 1.778l14.222 14.222 14.222-14.222"></path>
<path stroke-linejoin="miter" stroke-linecap="round" stroke-miterlimit="4" stroke-width="3.5556" d="M1.778 30.222l14.222-14.222 14.222 14.222"></path>
</symbol>
  </defs>
</svg>
